# xmcd
#
# Track frame offsets:
#	150
#	26169
#	50340
#	65610
#	88295
#	109875
#	125475
#	147040
#	163990
#	191825
#
# Disc length: 2931 seconds
#
# Revision: 0
# Processed by: cddbd v1.5.1PL0 Copyright (c) Steve Scherf et al.
# Submitted via: dBpowerAMP V4.0
#
DISCID=970b710a
DTITLE=Frimer Band - Blues Uncovered
DYEAR=1995
DGENRE=Blues
TTITLE0=Too Tired
TTITLE1=Ain´t That The Truth
TTITLE2=Just Blame It On Me
TTITLE3=While Time Is Running Out
TTITLE4=If You Could Only Forgive Me
TTITLE5=Tommorow Is A-Comin´
TTITLE6=Get Down
TTITLE7=Feels So Good To Stay
TTITLE8=Cold, Cold Feeling
TTITLE9=Starvation´s Doggin
EXTD=
EXTT0=
EXTT1=
EXTT2=
EXTT3=
EXTT4=
EXTT5=
EXTT6=
EXTT7=
EXTT8=
EXTT9=
PLAYORDER=
